<svg width="30" height="30" fill="none" xmlns="http://www.w3.org/2000/svg"><g clip-path="url(#clip0_723_33)"><path fill-rule="evenodd" clip-rule="evenodd" d="M12.384 8.692c.676-.031.892-.038 2.616-.038 1.724 0 1.94.007 2.616.038.676.03 1.137.138 1.541.295.423.16.807.41 1.124.732.323.317.572.7.732 1.124.157.403.264.865.295 1.54.031.678.038.894.038 2.617 0 1.724-.007 1.94-.038 2.616-.03.675-.138 1.137-.295 1.54a3.13 3.13 0 01-.732 1.125c-.317.323-.7.572-1.124.732-.404.157-.865.264-1.54.295-.677.031-.893.038-2.617.038s-1.94-.007-2.616-.038c-.675-.03-1.137-.138-1.54-.295a3.114 3.114 0 01-1.125-.732 3.11 3.11 0 01-.732-1.124c-.157-.404-.264-.865-.295-1.54-.031-.678-.038-.894-.038-2.617 0-1.724.007-1.94.038-2.616.03-.676.138-1.138.295-1.541.16-.424.41-.807.732-1.124a3.11 3.11 0 011.124-.732c.403-.157.865-.264 1.54-.295zm5.18 1.142c-.669-.03-.87-.037-2.564-.037s-1.895.007-2.565.037c-.619.028-.954.132-1.178.219a1.97 1.97 0 00-.73.474c-.21.205-.372.454-.474.73-.087.224-.19.56-.219 1.178-.03.67-.037.87-.037 2.565 0 1.694.007 1.895.037 2.564.028.62.132.955.219 1.179.101.275.263.525.474.73.205.21.455.373.73.474.224.087.56.19 1.178.219.67.03.87.037 2.565.037 1.695 0 1.895-.007 2.564-.037.62-.029.955-.132 1.179-.219a1.97 1.97 0 00.73-.474 1.97 1.97 0 00.474-.73c.087-.224.19-.56.219-1.179.03-.669.037-.87.037-2.564s-.007-1.895-.037-2.565c-.029-.619-.132-.954-.219-1.178a1.97 1.97 0 00-.474-.73 1.968 1.968 0 00-.73-.474c-.224-.087-.56-.19-1.179-.219zm-3.375 7.122a2.117 2.117 0 10.604-4.063 2.116 2.116 0 00-1.362 3.529c.21.232.47.414.758.534zm-1.496-4.263a3.263 3.263 0 114.614 4.615 3.263 3.263 0 01-4.614-4.615zm6.292-.47a.77.77 0 10-1.057-1.121.77.77 0 001.057 1.122z" fill="#715B4B"/></g><circle cx="15" cy="15" r="14.5" stroke="#715B4B"/><defs><clipPath id="clip0_723_33"><path fill="#fff" transform="translate(8.077 8.077)" d="M0 0h13.846v13.846H0z"/></clipPath></defs></svg>