<svg width="30" height="30" fill="none" xmlns="http://www.w3.org/2000/svg"><g clip-path="url(#clip0_723_38)"><path fill-rule="evenodd" clip-rule="evenodd" d="M18.124 16.374c-.172-.086-1.015-.5-1.172-.558-.157-.057-.27-.085-.386.087-.114.17-.442.557-.542.671-.1.115-.2.13-.372.044-.17-.087-.724-.267-1.378-.851a5.16 5.16 0 01-.954-1.188c-.1-.171-.011-.264.075-.35.077-.076.171-.2.257-.3.086-.1.115-.172.172-.287.057-.114.028-.213-.015-.3-.042-.085-.385-.93-.528-1.273-.14-.334-.28-.288-.386-.294a7.44 7.44 0 00-.329-.006c-.114 0-.3.043-.456.215-.158.171-.6.586-.6 1.43s.613 1.659.7 1.774c.085.114 1.208 1.846 2.928 2.588.41.177.729.282.977.36.41.132.785.113 1.08.069.329-.05 1.014-.415 1.157-.815.143-.4.143-.744.1-.816-.042-.071-.157-.114-.329-.2h.001zm-3.128 4.271h-.002a5.694 5.694 0 01-2.903-.795l-.208-.123-2.159.566.576-2.104-.135-.216a5.689 5.689 0 01-.872-3.035 5.71 5.71 0 015.705-5.702c1.523 0 2.955.594 4.032 1.672a5.668 5.668 0 011.668 4.034 5.71 5.71 0 01-5.702 5.703zm4.853-10.556a6.817 6.817 0 00-4.854-2.012c-3.78 0-6.86 3.078-6.86 6.86a6.843 6.843 0 00.915 3.43l-.973 3.556 3.637-.954a6.855 6.855 0 003.28.835h.002c3.781 0 6.86-3.078 6.86-6.861a6.82 6.82 0 00-2.007-4.854z" fill="#715B4B"/></g><circle cx="15" cy="15" r="14.5" stroke="#715B4B"/><defs><clipPath id="clip0_723_38"><path fill="#fff" transform="translate(8.077 8.077)" d="M0 0h13.846v13.846H0z"/></clipPath></defs></svg>